<svg width="11" height="8" viewBox="0 0 11 8" fill="none" xmlns="http://www.w3.org/2000/svg">
<path d="M10.4502 1.79785C10.4496 1.87088 10.4341 1.94364 10.4053 2.01074C10.3765 2.0776 10.3345 2.13788 10.2822 2.18848L5.875 6.5957C5.77188 6.69868 5.63207 6.75684 5.48633 6.75684C5.37703 6.75681 5.27127 6.72379 5.18164 6.66406L5.09766 6.5957L0.704102 2.20215C0.604109 2.09845 0.548553 1.95949 0.549805 1.81543C0.551105 1.67136 0.609102 1.53356 0.710938 1.43164C0.812913 1.32967 0.951495 1.27176 1.0957 1.27051C1.2038 1.26966 1.30891 1.30057 1.39844 1.3584L1.48242 1.4248L5.09766 5.04004L5.48633 5.42969L5.875 5.04004L9.49805 1.41797L9.50391 1.41113L9.58789 1.34082C9.61765 1.3203 9.64925 1.30244 9.68262 1.28809C9.74972 1.25926 9.82248 1.2438 9.89551 1.24316C9.96844 1.24257 10.0409 1.25656 10.1084 1.28418C10.176 1.31183 10.2374 1.35267 10.2891 1.4043C10.3407 1.45592 10.3815 1.51739 10.4092 1.58496C10.4368 1.65247 10.4508 1.72492 10.4502 1.79785Z" fill="white" stroke="white" stroke-width="1.1"/>
</svg>
