<svg width="1465" height="223" viewBox="0 0 1465 223" fill="none" xmlns="http://www.w3.org/2000/svg">
<path d="M42.4259 155.267V113.43H81.0217C88.4855 113.43 94.8691 111.957 100.172 109.011C105.672 106.065 109.895 101.94 112.841 96.6368C115.787 91.1372 117.261 84.8518 117.261 77.7808C117.261 70.317 115.787 63.9335 112.841 58.6303C109.895 53.1306 105.672 49.0059 100.172 46.256C94.8691 43.3098 88.4855 41.8367 81.0217 41.8367H42.4259V0H78.6647C96.9314 0 112.547 3.04445 125.51 9.13336C138.67 15.2223 148.687 23.8646 155.562 35.0603C162.633 46.256 166.168 59.7106 166.168 75.4239V80.1378C166.168 95.4583 162.633 108.815 155.562 120.207C148.687 131.402 138.67 140.045 125.51 146.134C112.547 152.223 96.9314 155.267 78.6647 155.267H42.4259ZM0 216.844V0H48.3184V216.844H0Z" fill="white"/>
<path d="M274.348 216.844V169.114H266.393V117.261C266.393 109.011 264.429 102.824 260.501 98.6992C256.573 94.5744 250.287 92.5121 241.645 92.5121C237.324 92.5121 231.628 92.6103 224.557 92.8067C217.486 93.0031 210.218 93.2977 202.755 93.6906C195.291 94.0834 188.514 94.4762 182.425 94.8691V55.0948C186.943 54.7019 192.246 54.3091 198.335 53.9163C204.424 53.5234 210.709 53.2288 217.191 53.0324C223.673 52.836 229.762 52.7378 235.458 52.7378C251.957 52.7378 265.804 55.0948 277 59.8088C288.392 64.5228 297.034 71.6919 302.927 81.3163C308.819 90.7443 311.766 102.922 311.766 117.85V216.844H274.348ZM222.789 220.968C211.2 220.968 200.987 218.906 192.148 214.781C183.506 210.656 176.729 204.764 171.819 197.104C166.909 189.247 164.453 179.917 164.453 169.114C164.453 157.329 167.498 147.705 173.587 140.241C179.676 132.581 188.22 126.983 199.219 123.448C210.218 119.716 222.887 117.85 237.226 117.85H271.697V144.071H236.931C228.681 144.071 222.298 146.134 217.78 150.258C213.459 154.187 211.299 159.588 211.299 166.463C211.299 172.945 213.459 178.248 217.78 182.372C222.298 186.301 228.681 188.265 236.931 188.265C242.234 188.265 246.948 187.381 251.073 185.613C255.394 183.649 258.93 180.408 261.679 175.891C264.429 171.373 266.001 165.088 266.393 157.035L277.589 168.82C276.607 180.016 273.857 189.443 269.34 197.104C265.018 204.764 258.93 210.656 251.073 214.781C243.413 218.906 233.985 220.968 222.789 220.968Z" fill="white"/>
<path d="M398.311 221.852C375.331 221.852 357.359 217.138 344.395 207.71C331.432 198.282 324.557 185.024 323.771 167.936H365.608C366.394 173.043 369.438 177.659 374.742 181.783C380.241 185.712 388.392 187.676 399.195 187.676C407.445 187.676 414.221 186.301 419.524 183.551C425.024 180.605 427.774 176.48 427.774 171.177C427.774 166.463 425.712 162.731 421.587 159.981C417.462 157.035 410.096 154.972 399.49 153.794L386.821 152.615C367.376 150.651 352.743 145.25 342.922 136.411C333.298 127.572 328.485 116.278 328.485 102.529C328.485 91.1372 331.334 81.611 337.03 73.9507C342.726 66.2905 350.582 60.4962 360.6 56.5679C370.813 52.6396 382.402 50.6754 395.365 50.6754C416.185 50.6754 432.979 55.2912 445.746 64.5228C458.513 73.5579 465.191 86.7178 465.78 104.002H423.944C423.158 98.6992 420.408 94.2798 415.694 90.7443C410.98 87.0124 404.008 85.1465 394.776 85.1465C387.509 85.1465 381.714 86.5214 377.393 89.2712C373.072 92.021 370.911 95.7529 370.911 100.467C370.911 104.985 372.777 108.422 376.509 110.779C380.241 113.136 386.33 114.805 394.776 115.787L407.445 116.966C427.283 119.126 442.702 124.626 453.701 133.465C464.7 142.304 470.2 154.187 470.2 169.114C470.2 179.917 467.254 189.345 461.361 197.398C455.469 205.255 447.121 211.344 436.318 215.665C425.515 219.79 412.846 221.852 398.311 221.852Z" fill="white"/>
<path d="M547.292 221.852C524.312 221.852 506.34 217.138 493.376 207.71C480.413 198.282 473.538 185.024 472.752 167.936H514.589C515.375 173.043 518.419 177.659 523.722 181.783C529.222 185.712 537.373 187.676 548.176 187.676C556.426 187.676 563.202 186.301 568.505 183.551C574.005 180.605 576.755 176.48 576.755 171.177C576.755 166.463 574.693 162.731 570.568 159.981C566.443 157.035 559.077 154.972 548.471 153.794L535.802 152.615C516.357 150.651 501.724 145.25 491.903 136.411C482.279 127.572 477.466 116.278 477.466 102.529C477.466 91.1372 480.314 81.611 486.011 73.9507C491.707 66.2905 499.563 60.4962 509.58 56.5679C519.794 52.6396 531.383 50.6754 544.346 50.6754C565.166 50.6754 581.96 55.2912 594.727 64.5228C607.494 73.5579 614.172 86.7178 614.761 104.002H572.925C572.139 98.6992 569.389 94.2798 564.675 90.7443C559.961 87.0124 552.988 85.1465 543.757 85.1465C536.49 85.1465 530.695 86.5214 526.374 89.2712C522.053 92.021 519.892 95.7529 519.892 100.467C519.892 104.985 521.758 108.422 525.49 110.779C529.222 113.136 535.311 114.805 543.757 115.787L556.426 116.966C576.264 119.126 591.682 124.626 602.682 133.465C613.681 142.304 619.181 154.187 619.181 169.114C619.181 179.917 616.235 189.345 610.342 197.398C604.45 205.255 596.102 211.344 585.299 215.665C574.496 219.79 561.827 221.852 547.292 221.852Z" fill="white"/>
<path d="M692.485 216.844L721.947 60.6926H773.506L807.683 216.844H771.149L736.089 61.8711H757.007L725.483 216.844H692.485ZM681.289 216.844L680.994 177.659H713.403L713.698 216.844H681.289ZM660.076 216.844L616.766 55.3894H663.022L703.386 216.844H660.076ZM783.229 216.844L783.524 177.659H815.932V216.844H783.229ZM796.487 216.844L832.431 55.3894H875.741L836.851 216.844H796.487Z" fill="white"/>
<path d="M965.065 222.441C950.923 222.441 938.353 220.281 927.353 215.96C916.354 211.442 907.024 205.353 899.364 197.693C891.9 190.033 886.204 181.292 882.276 171.471C878.347 161.454 876.383 150.946 876.383 139.947V133.17C876.383 121.975 878.347 111.368 882.276 101.351C886.401 91.1371 892.293 82.2002 899.953 74.54C907.81 66.8798 917.238 60.889 928.237 56.5679C939.236 52.0503 951.512 49.7915 965.065 49.7915C979.011 49.7915 991.385 52.0503 1002.19 56.5679C1013.19 60.889 1022.52 66.8798 1030.18 74.54C1037.84 82.2002 1043.73 91.1371 1047.85 101.351C1051.98 111.368 1054.04 121.975 1054.04 133.17V139.947C1054.04 150.946 1052.08 161.454 1048.15 171.471C1044.22 181.292 1038.43 190.033 1030.77 197.693C1023.3 205.353 1014.07 211.442 1003.07 215.96C992.072 220.281 979.404 222.441 965.065 222.441ZM965.065 182.667C974.297 182.667 981.957 180.703 988.046 176.775C994.135 172.846 998.751 167.347 1001.89 160.276C1005.23 153.205 1006.9 145.348 1006.9 136.706C1006.9 127.474 1005.23 119.421 1001.89 112.547C998.554 105.476 993.742 99.8777 987.457 95.7529C981.368 91.6282 973.904 89.5658 965.065 89.5658C956.423 89.5658 948.959 91.6282 942.674 95.7529C936.388 99.8777 931.576 105.476 928.237 112.547C925.094 119.421 923.523 127.474 923.523 136.706C923.523 145.348 925.094 153.205 928.237 160.276C931.38 167.347 936.094 172.846 942.379 176.775C948.664 180.703 956.226 182.667 965.065 182.667Z" fill="white"/>
<path d="M1072.21 216.844V55.3894H1109.63V124.626H1108.74C1108.74 101.842 1113.56 84.2626 1123.18 71.8884C1133 59.5141 1147.14 53.327 1165.61 53.327H1171.79V93.9852H1160.01C1147.04 93.9852 1137.03 97.5207 1129.96 104.592C1122.88 111.466 1119.35 121.483 1119.35 134.643V216.844H1072.21Z" fill="white"/>
<path d="M1247.21 222.147C1235.82 222.147 1225.4 220.084 1215.98 215.96C1206.75 211.835 1198.69 206.139 1191.82 198.871C1184.94 191.408 1179.64 182.667 1175.91 172.65C1172.37 162.633 1170.6 151.83 1170.6 140.241V133.465C1170.6 121.876 1172.27 111.073 1175.61 101.056C1179.15 91.0389 1184.16 82.2984 1190.64 74.8346C1197.32 67.1744 1205.27 61.2819 1214.5 57.1571C1223.74 52.836 1234.05 50.6754 1245.44 50.6754C1258.4 50.6754 1269.6 53.5234 1279.03 59.2195C1288.45 64.7192 1295.82 72.9687 1301.12 83.968C1306.43 94.7709 1309.37 108.127 1309.96 124.037L1297.59 112.547V1.76776H1345.02V216.844H1307.61V149.964H1314.09C1313.5 165.284 1310.26 178.346 1304.36 189.149C1298.67 199.952 1290.91 208.201 1281.09 213.897C1271.27 219.397 1259.97 222.147 1247.21 222.147ZM1258.99 182.667C1266.26 182.667 1272.84 181.096 1278.73 177.953C1284.82 174.614 1289.63 169.802 1293.17 163.517C1296.9 157.231 1298.77 149.669 1298.77 140.83V129.929C1298.77 121.287 1296.9 114.02 1293.17 108.127C1289.44 102.235 1284.53 97.7171 1278.44 94.5744C1272.35 91.4318 1265.77 89.8605 1258.7 89.8605C1250.84 89.8605 1243.77 91.9228 1237.48 96.0476C1231.4 99.9759 1226.58 105.476 1223.05 112.547C1219.51 119.421 1217.74 127.474 1217.74 136.706C1217.74 146.134 1219.51 154.285 1223.05 161.16C1226.58 168.034 1231.49 173.337 1237.78 177.069C1244.06 180.801 1251.14 182.667 1258.99 182.667Z" fill="white"/>
<path d="M1434.33 221.852C1411.35 221.852 1393.38 217.138 1380.41 207.71C1367.45 198.282 1360.58 185.024 1359.79 167.936H1401.63C1402.41 173.043 1405.46 177.659 1410.76 181.783C1416.26 185.712 1424.41 187.676 1435.21 187.676C1443.46 187.676 1450.24 186.301 1455.54 183.551C1461.04 180.605 1463.79 176.48 1463.79 171.177C1463.79 166.463 1461.73 162.731 1457.61 159.981C1453.48 157.035 1446.12 154.972 1435.51 153.794L1422.84 152.615C1403.39 150.651 1388.76 145.25 1378.94 136.411C1369.32 127.572 1364.5 116.278 1364.5 102.529C1364.5 91.1372 1367.35 81.611 1373.05 73.9507C1378.74 66.2905 1386.6 60.4962 1396.62 56.5679C1406.83 52.6396 1418.42 50.6754 1431.38 50.6754C1452.2 50.6754 1469 55.2912 1481.77 64.5228C1494.53 73.5579 1501.21 86.7178 1501.8 104.002H1459.96C1459.18 98.6992 1456.43 94.2798 1451.71 90.7443C1447 87.0124 1440.03 85.1465 1430.79 85.1465C1423.53 85.1465 1417.73 86.5214 1413.41 89.2712C1409.09 92.021 1406.93 95.7529 1406.93 100.467C1406.93 104.985 1408.8 108.422 1412.53 110.779C1416.26 113.136 1422.35 114.805 1430.79 115.787L1443.46 116.966C1463.3 119.126 1478.72 124.626 1489.72 133.465C1500.72 142.304 1506.22 154.187 1506.22 169.114C1506.22 179.917 1503.27 189.345 1497.38 197.398C1491.49 205.255 1483.14 211.344 1472.34 215.665C1461.53 219.79 1448.87 221.852 1434.33 221.852Z" fill="white"/>
</svg>
