<svg width="620" height="198" viewBox="0 0 620 198" fill="none" xmlns="http://www.w3.org/2000/svg">
<path d="M58.6404 192.827L0 0H44.6407L91.1304 162.714L81.0928 157.695H108.036L97.4699 162.714L140.526 0H183.846L129.167 192.827H58.6404Z" fill="#E6FF2B"/>
<path d="M276.784 192.827V150.035H269.652V103.545C269.652 96.1491 267.891 90.6021 264.369 86.904C260.847 83.206 255.212 81.357 247.464 81.357C243.589 81.357 238.483 81.445 232.143 81.6211C225.804 81.7972 219.288 82.0614 212.596 82.4136C205.905 82.7657 199.829 83.1179 194.37 83.4701V47.8104C198.42 47.4582 203.175 47.106 208.634 46.7538C214.093 46.4016 219.728 46.1375 225.539 45.9614C231.351 45.7853 236.81 45.6973 241.916 45.6973C256.709 45.6973 269.123 47.8104 279.161 52.0368C289.375 56.2631 297.123 62.6907 302.406 71.3194C307.689 79.7721 310.33 90.6901 310.33 104.074V192.827H276.784ZM230.558 196.525C220.168 196.525 211.011 194.676 203.087 190.978C195.339 187.28 189.263 181.997 184.861 175.129C180.458 168.085 178.257 159.72 178.257 150.035C178.257 139.469 180.987 130.84 186.446 124.149C191.905 117.281 199.565 112.262 209.426 109.092C219.288 105.746 230.646 104.074 243.501 104.074H274.406V127.583H243.237C235.841 127.583 230.118 129.432 226.068 133.13C222.194 136.652 220.256 141.494 220.256 147.658C220.256 153.469 222.194 158.223 226.068 161.922C230.118 165.443 235.841 167.204 243.237 167.204C247.992 167.204 252.218 166.412 255.916 164.827C259.79 163.066 262.96 160.161 265.425 156.11C267.891 152.06 269.3 146.425 269.652 139.205L279.689 149.771C278.809 159.808 276.343 168.261 272.293 175.129C268.419 181.997 262.96 187.28 255.916 190.978C249.048 194.676 240.596 196.525 230.558 196.525Z" fill="#E6FF2B"/>
<path d="M381.848 197.317C365.118 197.317 352.263 191.946 343.282 181.204C334.301 170.286 329.811 153.909 329.811 132.073V48.0746H372.074V134.186C372.074 141.934 374.276 148.098 378.678 152.676C383.08 157.255 388.98 159.544 396.376 159.544C403.948 159.544 410.111 157.167 414.866 152.412C419.621 147.658 421.998 141.23 421.998 133.13V48.0746H464.261V192.827H430.715V131.809H433.62C433.62 146.425 431.683 158.664 427.809 168.525C424.111 178.211 418.564 185.43 411.168 190.185C403.772 194.94 394.615 197.317 383.697 197.317H381.848Z" fill="#E6FF2B"/>
<path d="M491.873 192.827V0H534.4V192.827H491.873ZM474.703 31.1692V0H534.4V31.1692H474.703Z" fill="#E6FF2B"/>
<path d="M625.908 194.676C611.292 194.676 599.494 192.915 590.513 189.393C581.532 185.695 574.928 179.619 570.702 171.167C566.652 162.538 564.626 150.915 564.626 136.299V8.98096H603.984V137.884C603.984 144.752 605.745 150.035 609.267 153.733C612.965 157.255 618.16 159.016 624.852 159.016H646.248V194.676H625.908ZM542.702 78.9797V48.0746H646.248V78.9797H542.702Z" fill="#E6FF2B"/>
</svg>
