<svg width="25" height="24" viewBox="0 0 25 24" fill="none" xmlns="http://www.w3.org/2000/svg">
<path fill-rule="evenodd" clip-rule="evenodd" d="M24.5742 12C24.5742 18.6274 19.2016 24 12.5742 24C5.9468 24 0.574219 18.6274 0.574219 12C0.574219 5.37258 5.9468 0 12.5742 0C19.2016 0 24.5742 5.37258 24.5742 12ZM6.58022 8.4C6.58022 7.74 7.11422 7.2 7.77422 7.2H17.3742C18.0342 7.2 18.5742 7.74 18.5742 8.4V15.6C18.5742 16.26 18.0342 16.8 17.3742 16.8H7.77422C7.11422 16.8 6.57422 16.26 6.57422 15.6L6.58022 8.4ZM12.5742 12.6L7.77423 9.59997V15.6H17.3742V9.59997L12.5742 12.6ZM12.5742 11.4L7.77423 8.40001H17.3742L12.5742 11.4Z" fill="white"/>
</svg>
