<svg width="25" height="24" viewBox="0 0 25 24" fill="none" xmlns="http://www.w3.org/2000/svg">
<path d="M12.5742 21.6C15.1203 21.6 17.5621 20.5886 19.3624 18.7882C21.1628 16.9879 22.1742 14.5461 22.1742 12C22.1742 9.45392 21.1628 7.01212 19.3624 5.21178C17.5621 3.41143 15.1203 2.4 12.5742 2.4C10.0281 2.4 7.58634 3.41143 5.78599 5.21178C3.98564 7.01212 2.97422 9.45392 2.97422 12C2.97422 14.5461 3.98564 16.9879 5.78599 18.7882C7.58634 20.5886 10.0281 21.6 12.5742 21.6ZM12.5742 24C5.94662 24 0.574219 18.6276 0.574219 12C0.574219 5.3724 5.94662 0 12.5742 0C19.2018 0 24.5742 5.3724 24.5742 12C24.5742 18.6276 19.2018 24 12.5742 24Z" fill="white"/>
<path d="M12.5742 17.539L10.365 10.7398H14.7834L12.5742 17.539ZM12.5742 17.539L7.26782 10.7398H10.3638L12.5742 17.539ZM7.26782 10.7398L12.5742 17.539L6.76262 13.3174C6.68434 13.2605 6.62613 13.1802 6.59637 13.0882C6.56662 12.9961 6.56684 12.8969 6.59702 12.805L7.26902 10.7386L7.26782 10.7398ZM7.26782 10.7398L8.59982 6.64419C8.61452 6.59813 8.64348 6.55794 8.68253 6.52942C8.72157 6.5009 8.76867 6.48553 8.81701 6.48553C8.86536 6.48553 8.91246 6.5009 8.9515 6.52942C8.99055 6.55794 9.01951 6.59813 9.03422 6.64419L10.365 10.7398L7.26902 10.7386L7.26782 10.7398ZM12.5742 17.539L14.7834 10.7398L17.8794 10.7386L12.5742 17.539ZM17.8806 10.7386L18.5526 12.805C18.5825 12.8972 18.5824 12.9965 18.5522 13.0886C18.522 13.1807 18.4633 13.2608 18.3846 13.3174L12.5742 17.539L17.8806 10.7386ZM17.8806 10.7386H14.7846L16.1142 6.64299C16.1286 6.59648 16.1575 6.5558 16.1967 6.5269C16.2359 6.49801 16.2833 6.48242 16.332 6.48242C16.3807 6.48242 16.4281 6.49801 16.4673 6.5269C16.5065 6.5558 16.5354 6.59648 16.5498 6.64299L17.8806 10.7386Z" fill="white"/>
</svg>
