<svg width="25" height="24" viewBox="0 0 25 24" fill="none" xmlns="http://www.w3.org/2000/svg">
<path fill-rule="evenodd" clip-rule="evenodd" d="M24.5742 12C24.5742 18.6274 19.2016 24 12.5742 24C5.9468 24 0.574219 18.6274 0.574219 12C0.574219 5.37258 5.9468 0 12.5742 0C19.2016 0 24.5742 5.37258 24.5742 12ZM13.0042 8.85893C11.8371 9.3444 9.50434 10.3492 6.0061 11.8733C5.43803 12.0992 5.14046 12.3203 5.11337 12.5363C5.0676 12.9016 5.52493 13.0453 6.14768 13.2412C6.2324 13.2678 6.32017 13.2954 6.41014 13.3246C7.02284 13.5238 7.84704 13.7568 8.2755 13.766C8.66415 13.7744 9.09794 13.6142 9.57685 13.2853C12.8454 11.079 14.5326 9.96384 14.6385 9.93972C14.7132 9.9228 14.8168 9.90144 14.887 9.96384C14.9572 10.0262 14.9502 10.1443 14.9428 10.176C14.8975 10.3692 13.1023 12.0382 12.1733 12.9018C11.8837 13.1711 11.6783 13.362 11.6363 13.4057C11.5422 13.5034 11.4463 13.5958 11.3542 13.6846C10.785 14.2333 10.3581 14.6448 11.3778 15.3168C11.8679 15.6397 12.2599 15.9067 12.6511 16.1731C13.0783 16.4641 13.5045 16.7543 14.0559 17.1157C14.1963 17.2078 14.3304 17.3034 14.4611 17.3965C14.9583 17.751 15.4049 18.0695 15.9568 18.0186C16.2774 17.9892 16.6086 17.6876 16.7769 16.7884C17.1744 14.6632 17.9559 10.0584 18.1365 8.16097C18.1523 7.99474 18.1324 7.78198 18.1164 7.68858C18.1003 7.59518 18.067 7.4621 17.9455 7.3636C17.8018 7.24693 17.5799 7.22233 17.4805 7.224C17.0292 7.23204 16.3367 7.47282 13.0042 8.85893Z" fill="white"/>
</svg>
