<svg width="128" height="38" viewBox="0 0 128 38" fill="none" xmlns="http://www.w3.org/2000/svg">
<path d="M3.456 13.1246V9.71656H6.6C7.208 9.71656 7.728 9.59656 8.16 9.35656C8.608 9.11656 8.952 8.78056 9.192 8.34856C9.432 7.90056 9.552 7.38856 9.552 6.81256C9.552 6.20456 9.432 5.68456 9.192 5.25256C8.952 4.80456 8.608 4.46856 8.16 4.24456C7.728 4.00456 7.208 3.88456 6.6 3.88456H3.456V0.476562H6.408C7.896 0.476562 9.168 0.724563 10.224 1.22056C11.296 1.71656 12.112 2.42056 12.672 3.33256C13.248 4.24456 13.536 5.34056 13.536 6.62056V7.00456C13.536 8.25256 13.248 9.34056 12.672 10.2686C12.112 11.1806 11.296 11.8846 10.224 12.3806C9.168 12.8766 7.896 13.1246 6.408 13.1246H3.456ZM0 18.1406V0.476562H3.936V18.1406H0Z" fill="white"/>
<path d="M22.8283 18.1406V14.2526H22.1803V10.0286C22.1803 9.35656 22.0203 8.85256 21.7003 8.51656C21.3803 8.18056 20.8683 8.01256 20.1643 8.01256C19.8123 8.01256 19.3483 8.02056 18.7723 8.03656C18.1963 8.05256 17.6043 8.07656 16.9963 8.10856C16.3883 8.14056 15.8363 8.17256 15.3403 8.20456V4.96456C15.7083 4.93256 16.1403 4.90056 16.6363 4.86856C17.1323 4.83656 17.6443 4.81256 18.1723 4.79656C18.7003 4.78056 19.1963 4.77256 19.6603 4.77256C21.0043 4.77256 22.1323 4.96456 23.0443 5.34856C23.9723 5.73256 24.6763 6.31656 25.1563 7.10056C25.6363 7.86856 25.8763 8.86056 25.8763 10.0766V18.1406H22.8283ZM18.6283 18.4766C17.6843 18.4766 16.8523 18.3086 16.1323 17.9726C15.4283 17.6366 14.8763 17.1566 14.4763 16.5326C14.0763 15.8926 13.8763 15.1326 13.8763 14.2526C13.8763 13.2926 14.1243 12.5086 14.6203 11.9006C15.1163 11.2766 15.8123 10.8206 16.7083 10.5326C17.6043 10.2286 18.6363 10.0766 19.8043 10.0766H22.6123V12.2126H19.7803C19.1083 12.2126 18.5883 12.3806 18.2203 12.7166C17.8683 13.0366 17.6923 13.4766 17.6923 14.0366C17.6923 14.5646 17.8683 14.9966 18.2203 15.3326C18.5883 15.6526 19.1083 15.8126 19.7803 15.8126C20.2123 15.8126 20.5963 15.7406 20.9323 15.5966C21.2843 15.4366 21.5723 15.1726 21.7963 14.8046C22.0203 14.4366 22.1483 13.9246 22.1803 13.2686L23.0923 14.2286C23.0123 15.1406 22.7883 15.9086 22.4203 16.5326C22.0683 17.1566 21.5723 17.6366 20.9323 17.9726C20.3083 18.3086 19.5403 18.4766 18.6283 18.4766Z" fill="white"/>
<path d="M33.4063 18.5486C31.5343 18.5486 30.0703 18.1646 29.0143 17.3966C27.9583 16.6286 27.3983 15.5486 27.3343 14.1566H30.7423C30.8063 14.5726 31.0543 14.9486 31.4863 15.2846C31.9343 15.6046 32.5983 15.7646 33.4783 15.7646C34.1503 15.7646 34.7023 15.6526 35.1343 15.4286C35.5823 15.1886 35.8063 14.8526 35.8063 14.4206C35.8063 14.0366 35.6383 13.7326 35.3023 13.5086C34.9663 13.2686 34.3663 13.1006 33.5023 13.0046L32.4703 12.9086C30.8863 12.7486 29.6943 12.3086 28.8943 11.5886C28.1103 10.8686 27.7183 9.94856 27.7183 8.82856C27.7183 7.90056 27.9503 7.12456 28.4143 6.50056C28.8783 5.87656 29.5183 5.40456 30.3343 5.08456C31.1663 4.76456 32.1103 4.60456 33.1663 4.60456C34.8623 4.60456 36.2303 4.98056 37.2703 5.73256C38.3103 6.46856 38.8543 7.54056 38.9023 8.94856H35.4943C35.4303 8.51656 35.2063 8.15656 34.8223 7.86856C34.4383 7.56456 33.8703 7.41256 33.1183 7.41256C32.5263 7.41256 32.0543 7.52456 31.7023 7.74856C31.3503 7.97256 31.1743 8.27656 31.1743 8.66056C31.1743 9.02856 31.3263 9.30856 31.6303 9.50056C31.9343 9.69256 32.4303 9.82856 33.1183 9.90856L34.1503 10.0046C35.7663 10.1806 37.0223 10.6286 37.9183 11.3486C38.8143 12.0686 39.2623 13.0366 39.2623 14.2526C39.2623 15.1326 39.0223 15.9006 38.5423 16.5566C38.0623 17.1966 37.3823 17.6926 36.5023 18.0446C35.6223 18.3806 34.5903 18.5486 33.4063 18.5486Z" fill="white"/>
<path d="M46.0223 18.5486C44.1502 18.5486 42.6862 18.1646 41.6302 17.3966C40.5742 16.6286 40.0142 15.5486 39.9502 14.1566H43.3582C43.4222 14.5726 43.6702 14.9486 44.1022 15.2846C44.5503 15.6046 45.2142 15.7646 46.0942 15.7646C46.7663 15.7646 47.3183 15.6526 47.7503 15.4286C48.1982 15.1886 48.4222 14.8526 48.4222 14.4206C48.4222 14.0366 48.2542 13.7326 47.9183 13.5086C47.5823 13.2686 46.9823 13.1006 46.1183 13.0046L45.0863 12.9086C43.5023 12.7486 42.3102 12.3086 41.5103 11.5886C40.7262 10.8686 40.3343 9.94856 40.3343 8.82856C40.3343 7.90056 40.5662 7.12456 41.0303 6.50056C41.4943 5.87656 42.1342 5.40456 42.9502 5.08456C43.7822 4.76456 44.7262 4.60456 45.7822 4.60456C47.4782 4.60456 48.8462 4.98056 49.8862 5.73256C50.9263 6.46856 51.4702 7.54056 51.5182 8.94856H48.1103C48.0463 8.51656 47.8223 8.15656 47.4383 7.86856C47.0543 7.56456 46.4862 7.41256 45.7342 7.41256C45.1423 7.41256 44.6702 7.52456 44.3182 7.74856C43.9662 7.97256 43.7902 8.27656 43.7902 8.66056C43.7902 9.02856 43.9422 9.30856 44.2463 9.50056C44.5503 9.69256 45.0462 9.82856 45.7342 9.90856L46.7663 10.0046C48.3823 10.1806 49.6383 10.6286 50.5343 11.3486C51.4303 12.0686 51.8783 13.0366 51.8783 14.2526C51.8783 15.1326 51.6383 15.9006 51.1583 16.5566C50.6783 17.1966 49.9983 17.6926 49.1183 18.0446C48.2383 18.3806 47.2063 18.5486 46.0223 18.5486Z" fill="white"/>
<path d="M58.3296 18.1406L60.7296 5.42056H64.9296L67.7136 18.1406H64.7376L61.8816 5.51656H63.5856L61.0176 18.1406H58.3296ZM57.4176 18.1406L57.3936 14.9486H60.0336L60.0576 18.1406H57.4176ZM55.6896 18.1406L52.1616 4.98856H55.9296L59.2176 18.1406H55.6896ZM65.7216 18.1406L65.7456 14.9486H68.3856V18.1406H65.7216ZM66.8016 18.1406L69.7296 4.98856H73.2576L70.0896 18.1406H66.8016Z" fill="white"/>
<path d="M81.0139 18.5966C79.8619 18.5966 78.8379 18.4206 77.9419 18.0686C77.0459 17.7006 76.2859 17.2046 75.6619 16.5806C75.0539 15.9566 74.5899 15.2446 74.2699 14.4446C73.9499 13.6286 73.7899 12.7726 73.7899 11.8766V11.3246C73.7899 10.4126 73.9499 9.54856 74.2699 8.73256C74.6059 7.90056 75.0859 7.17256 75.7099 6.54856C76.3499 5.92456 77.1179 5.43656 78.0139 5.08456C78.9099 4.71656 79.9099 4.53256 81.0139 4.53256C82.1499 4.53256 83.1579 4.71656 84.0379 5.08456C84.9339 5.43656 85.6939 5.92456 86.3179 6.54856C86.9419 7.17256 87.4219 7.90056 87.7579 8.73256C88.0939 9.54856 88.2619 10.4126 88.2619 11.3246V11.8766C88.2619 12.7726 88.1019 13.6286 87.7819 14.4446C87.4619 15.2446 86.9899 15.9566 86.3659 16.5806C85.7579 17.2046 85.0059 17.7006 84.1099 18.0686C83.2139 18.4206 82.1819 18.5966 81.0139 18.5966ZM81.0139 15.3566C81.7659 15.3566 82.3899 15.1966 82.8859 14.8766C83.3819 14.5566 83.7579 14.1086 84.0139 13.5326C84.2859 12.9566 84.4219 12.3166 84.4219 11.6126C84.4219 10.8606 84.2859 10.2046 84.0139 9.64456C83.7419 9.06856 83.3499 8.61256 82.8379 8.27656C82.3419 7.94056 81.7339 7.77256 81.0139 7.77256C80.3099 7.77256 79.7019 7.94056 79.1899 8.27656C78.6779 8.61256 78.2859 9.06856 78.0139 9.64456C77.7579 10.2046 77.6299 10.8606 77.6299 11.6126C77.6299 12.3166 77.7579 12.9566 78.0139 13.5326C78.2699 14.1086 78.6539 14.5566 79.1659 14.8766C79.6779 15.1966 80.2939 15.3566 81.0139 15.3566Z" fill="white"/>
<path d="M90.2218 18.1406V4.98856H93.2698V10.6286H93.1978C93.1978 8.77256 93.5898 7.34056 94.3738 6.33256C95.1738 5.32456 96.3258 4.82056 97.8298 4.82056H98.3338V8.13256H97.3738C96.3178 8.13256 95.5018 8.42056 94.9258 8.99656C94.3498 9.55656 94.0618 10.3726 94.0618 11.4446V18.1406H90.2218Z" fill="white"/>
<path d="M104.957 18.5726C104.029 18.5726 103.181 18.4046 102.413 18.0686C101.661 17.7326 101.005 17.2686 100.445 16.6766C99.8851 16.0686 99.4531 15.3566 99.1491 14.5406C98.8611 13.7246 98.7171 12.8446 98.7171 11.9006V11.3486C98.7171 10.4046 98.8531 9.52456 99.1251 8.70856C99.4131 7.89256 99.8211 7.18056 100.349 6.57256C100.893 5.94856 101.541 5.46856 102.293 5.13256C103.045 4.78056 103.885 4.60456 104.813 4.60456C105.869 4.60456 106.781 4.83656 107.549 5.30056C108.317 5.74856 108.917 6.42056 109.349 7.31656C109.781 8.19656 110.021 9.28456 110.069 10.5806L109.061 9.64456V0.620564H112.925V18.1406H109.877V12.6926H110.405C110.357 13.9406 110.093 15.0046 109.613 15.8846C109.149 16.7646 108.517 17.4366 107.717 17.9006C106.917 18.3486 105.997 18.5726 104.957 18.5726ZM105.917 15.3566C106.509 15.3566 107.045 15.2286 107.525 14.9726C108.021 14.7006 108.413 14.3086 108.701 13.7966C109.005 13.2846 109.157 12.6686 109.157 11.9486V11.0606C109.157 10.3566 109.005 9.76456 108.701 9.28456C108.397 8.80456 107.997 8.43656 107.501 8.18056C107.005 7.92456 106.469 7.79656 105.893 7.79656C105.253 7.79656 104.677 7.96456 104.165 8.30056C103.669 8.62056 103.277 9.06856 102.989 9.64456C102.701 10.2046 102.557 10.8606 102.557 11.6126C102.557 12.3806 102.701 13.0446 102.989 13.6046C103.277 14.1646 103.677 14.5966 104.189 14.9006C104.701 15.2046 105.277 15.3566 105.917 15.3566Z" fill="white"/>
<path d="M120.68 18.5486C118.808 18.5486 117.344 18.1646 116.288 17.3966C115.232 16.6286 114.672 15.5486 114.608 14.1566H118.016C118.08 14.5726 118.328 14.9486 118.76 15.2846C119.208 15.6046 119.872 15.7646 120.752 15.7646C121.424 15.7646 121.976 15.6526 122.408 15.4286C122.856 15.1886 123.08 14.8526 123.08 14.4206C123.08 14.0366 122.912 13.7326 122.576 13.5086C122.24 13.2686 121.64 13.1006 120.776 13.0046L119.744 12.9086C118.16 12.7486 116.968 12.3086 116.168 11.5886C115.384 10.8686 114.992 9.94856 114.992 8.82856C114.992 7.90056 115.224 7.12456 115.688 6.50056C116.152 5.87656 116.792 5.40456 117.608 5.08456C118.44 4.76456 119.384 4.60456 120.44 4.60456C122.136 4.60456 123.504 4.98056 124.544 5.73256C125.584 6.46856 126.128 7.54056 126.176 8.94856H122.768C122.704 8.51656 122.48 8.15656 122.096 7.86856C121.712 7.56456 121.144 7.41256 120.392 7.41256C119.8 7.41256 119.328 7.52456 118.976 7.74856C118.624 7.97256 118.448 8.27656 118.448 8.66056C118.448 9.02856 118.6 9.30856 118.904 9.50056C119.208 9.69256 119.704 9.82856 120.392 9.90856L121.424 10.0046C123.04 10.1806 124.296 10.6286 125.192 11.3486C126.088 12.0686 126.536 13.0366 126.536 14.2526C126.536 15.1326 126.296 15.9006 125.816 16.5566C125.336 17.1966 124.656 17.6926 123.776 18.0446C122.896 18.3806 121.864 18.5486 120.68 18.5486Z" fill="white"/>
<path d="M5.328 37.1157L0 19.5957H4.056L8.28 34.3797L7.368 33.9237H9.816L8.856 34.3797L12.768 19.5957H16.704L11.736 37.1157H5.328Z" fill="#E6FF2B"/>
<path d="M25.6283 37.1157V33.2277H24.9803V29.0037C24.9803 28.3317 24.8203 27.8277 24.5003 27.4917C24.1803 27.1557 23.6683 26.9877 22.9643 26.9877C22.6123 26.9877 22.1483 26.9957 21.5723 27.0117C20.9963 27.0277 20.4043 27.0517 19.7963 27.0837C19.1883 27.1157 18.6363 27.1477 18.1403 27.1797V23.9397C18.5083 23.9077 18.9403 23.8757 19.4363 23.8437C19.9323 23.8117 20.4443 23.7877 20.9722 23.7717C21.5002 23.7557 21.9963 23.7477 22.4603 23.7477C23.8043 23.7477 24.9323 23.9397 25.8443 24.3237C26.7723 24.7077 27.4762 25.2917 27.9563 26.0757C28.4363 26.8437 28.6763 27.8357 28.6763 29.0517V37.1157H25.6283ZM21.4283 37.4517C20.4843 37.4517 19.6523 37.2837 18.9323 36.9477C18.2283 36.6117 17.6763 36.1317 17.2763 35.5077C16.8763 34.8677 16.6763 34.1077 16.6763 33.2277C16.6763 32.2677 16.9242 31.4837 17.4202 30.8757C17.9163 30.2517 18.6123 29.7957 19.5083 29.5077C20.4043 29.2037 21.4363 29.0517 22.6043 29.0517H25.4123V31.1877H22.5803C21.9083 31.1877 21.3883 31.3557 21.0203 31.6917C20.6683 32.0117 20.4923 32.4517 20.4923 33.0117C20.4923 33.5397 20.6683 33.9717 21.0203 34.3077C21.3883 34.6277 21.9083 34.7877 22.5803 34.7877C23.0123 34.7877 23.3962 34.7157 23.7323 34.5717C24.0842 34.4117 24.3722 34.1477 24.5963 33.7797C24.8203 33.4117 24.9483 32.8997 24.9803 32.2437L25.8923 33.2037C25.8123 34.1157 25.5883 34.8837 25.2203 35.5077C24.8683 36.1317 24.3722 36.6117 23.7323 36.9477C23.1082 37.2837 22.3403 37.4517 21.4283 37.4517Z" fill="#E6FF2B"/>
<path d="M35.6543 37.5237C34.1343 37.5237 32.9662 37.0357 32.1502 36.0597C31.3342 35.0677 30.9263 33.5797 30.9263 31.5957V23.9637H34.7663V31.7877C34.7663 32.4917 34.9662 33.0517 35.3662 33.4677C35.7663 33.8837 36.3022 34.0917 36.9743 34.0917C37.6623 34.0917 38.2223 33.8757 38.6543 33.4437C39.0863 33.0117 39.3022 32.4277 39.3022 31.6917V23.9637H43.1423V37.1157H40.0942V31.5717H40.3582C40.3582 32.8997 40.1823 34.0117 39.8302 34.9077C39.4943 35.7877 38.9902 36.4437 38.3182 36.8757C37.6462 37.3077 36.8143 37.5237 35.8223 37.5237H35.6543Z" fill="#E6FF2B"/>
<path d="M46.131 37.1157V19.5957H49.995V37.1157H46.131ZM44.571 22.4277V19.5957H49.995V22.4277H44.571Z" fill="#E6FF2B"/>
<path d="M58.7893 37.2837C57.4613 37.2837 56.3893 37.1237 55.5733 36.8037C54.7573 36.4677 54.1573 35.9157 53.7733 35.1477C53.4053 34.3637 53.2213 33.3077 53.2213 31.9797V20.4117H56.7973V32.1237C56.7973 32.7477 56.9573 33.2277 57.2773 33.5637C57.6133 33.8837 58.0853 34.0437 58.6933 34.0437H60.6373V37.2837H58.7893ZM51.2293 26.7717V23.9637H60.6373V26.7717H51.2293Z" fill="#E6FF2B"/>
</svg>
