<svg width="23" height="22" viewBox="0 0 23 22" fill="none" xmlns="http://www.w3.org/2000/svg">
<path d="M10.1818 2.81875C10.2334 2.81875 10.2979 2.84453 10.3537 2.92188C10.1045 2.56523 10.633 2.71992 10.6631 2.38047C10.9639 2.15703 10.8564 2.01094 10.9424 2.00234L11.0369 1.925C10.8521 1.99375 10.7877 2.00664 10.7361 2.00664C10.7232 2.00664 10.7104 2.00664 10.6975 2.00664C10.6846 2.00664 10.6674 2.00664 10.6502 2.00664C10.5857 2.00664 10.4783 2.01953 10.2248 2.09687C9.64473 2.13984 9.22793 2.76719 9.03027 2.78438C8.82832 2.8918 8.83691 2.91328 8.88418 2.91328C8.89707 2.91328 8.91426 2.90898 8.93145 2.90898C8.94863 2.90898 8.96152 2.90469 8.97441 2.90469C9.02168 2.90469 9.00879 2.92617 8.73379 3.05508C8.79824 3.07227 8.25254 3.31289 8.24824 3.69102C8.23106 3.83711 8.29121 3.93594 8.39004 3.93594C8.47598 3.93594 8.5834 3.87148 8.69941 3.7082C9.08613 3.26133 9.90254 3.21836 10.2549 2.94766C10.0357 2.93047 10.0787 2.81875 10.1818 2.81875ZM8.21816 2.96914C8.17949 2.96914 8.23105 2.92188 8.28691 2.87461C8.34707 2.82734 8.41582 2.78008 8.41582 2.78008C8.41582 2.78008 8.41582 2.78008 8.41152 2.78438C8.64355 2.69414 8.50176 2.67266 8.62637 2.6125C8.62207 2.6125 8.62207 2.6125 8.61777 2.6125C8.59199 2.6125 8.63926 2.57812 8.68223 2.53945C8.72519 2.50508 8.76387 2.46641 8.72519 2.46641C8.70371 2.46641 8.64785 2.4793 8.55332 2.51797C8.5834 2.475 8.69941 2.44492 8.8627 2.35469C8.62637 2.43203 8.4416 2.4793 8.42012 2.4793C8.40293 2.4793 8.50176 2.44492 8.79824 2.35469C8.81113 2.35469 8.82402 2.35898 8.83262 2.35898C8.86269 2.35898 8.87559 2.35039 8.87129 2.3418C8.86699 2.3332 8.8498 2.32891 8.81973 2.32891C8.39434 2.36328 8.07637 2.62969 8.1709 2.66406C8.22676 2.64687 8.26543 2.63828 8.29121 2.63828C8.34707 2.63828 8.32129 2.68555 8.20957 2.7543C8.26113 2.87461 7.3502 3.18398 7.24707 3.2957C7.29863 3.26562 7.33301 3.25703 7.35019 3.25703C7.41894 3.25703 7.32871 3.39023 7.23848 3.45469C7.29434 3.50625 7.3373 3.52344 7.37168 3.52344C7.46191 3.52344 7.50059 3.39883 7.57793 3.36016C7.59512 3.39453 7.6123 3.41172 7.63379 3.41172C7.70684 3.41172 7.79707 3.23125 7.87012 3.13672C7.8916 3.1582 7.91738 3.17539 7.95176 3.17539C8.02051 3.17539 8.12363 3.11953 8.28691 2.96055C8.25254 2.96484 8.22676 2.96914 8.21816 2.96914ZM7.22988 3.75977C7.0752 3.8543 6.99355 3.89297 6.95918 3.89297C6.89473 3.89297 6.98066 3.77266 7.05801 3.64805C7.13535 3.52773 7.2041 3.40742 7.10527 3.40742C7.05801 3.40742 6.97207 3.4332 6.83457 3.50195C6.46074 3.75117 5.8291 4.43867 5.5498 4.43867C5.54121 4.43867 5.53262 4.43867 5.52402 4.43867C5.9752 4.10781 5.84199 3.45898 6.47363 3.29141C7.09668 2.93477 7.52207 3.04648 8.07637 2.63828C7.91309 2.71992 7.67246 2.81016 7.6166 2.81016C7.58223 2.81016 7.63379 2.76719 7.85723 2.65977C7.83574 2.66406 7.81855 2.66836 7.80566 2.66836C7.65527 2.66836 8.79395 2.26016 8.8498 2.25156C8.38145 2.31602 7.6252 2.70703 7.52207 2.70703C7.50918 2.70703 7.50918 2.70273 7.50918 2.69414C7.52637 2.68125 7.52637 2.67266 7.50918 2.67266C7.45332 2.67266 7.22129 2.75 6.98496 2.82734C6.75293 2.90469 6.5166 2.98633 6.46504 2.98633C6.44785 2.98633 6.44785 2.97773 6.47363 2.96055C4.44551 4.11211 2.75254 6.0543 2.22402 8.35742C2.44316 8.86016 2.29277 9.81836 2.65371 10.0977C3.06621 10.4457 2.30137 11.4555 2.50332 12.0785C2.70957 13.2043 3.59902 13.9734 3.69355 15.125C3.85684 15.9156 4.4541 16.8824 4.70332 17.3852C4.89238 17.5742 5.4123 18.1199 5.50254 18.1199C5.53691 18.1199 5.51543 18.0383 5.37793 17.8191C5.29199 17.5742 4.79355 16.934 5.03418 16.934C5.04707 16.934 5.05996 16.934 5.07715 16.9383C4.78066 16.6375 5.73457 16.7191 5.06855 16.3109C4.99121 16.2164 4.97402 16.1863 4.99121 16.1863C5.0127 16.1863 5.07285 16.2207 5.1416 16.2551C5.21465 16.2895 5.30059 16.3238 5.36934 16.3238C5.47676 16.3238 5.5498 16.2508 5.50684 15.9844C5.52402 15.993 5.54121 15.993 5.5541 15.993C5.66582 15.993 5.62715 15.7738 5.63574 15.5547C5.64434 15.3355 5.7002 15.1164 6.00098 15.1164C6.03535 15.1164 6.07402 15.1207 6.1127 15.125C6.80879 14.7469 6.20293 13.7027 7.00215 13.3203C6.97207 12.4523 5.80762 12.4094 5.36934 12.057C5.29629 12.1 5.22754 12.1129 5.15879 12.1129C5.08145 12.1129 5.0127 12.0957 4.95254 12.0742C4.89238 12.057 4.83652 12.0355 4.79785 12.0355C4.78926 12.0355 4.78066 12.0355 4.77207 12.0398C5.51973 11.8422 4.97402 10.8023 4.35527 10.8023C4.34238 10.8023 4.3252 10.8023 4.3123 10.8023C4.26504 10.3512 4.03301 10.523 4.00723 10.1492C3.96855 10.1707 3.92988 10.1793 3.89121 10.1793C3.78809 10.1793 3.69355 10.1062 3.61191 10.0375C3.53027 9.96445 3.46152 9.8957 3.40137 9.8957C3.3541 9.8957 3.31113 9.94297 3.27246 10.0805C3.31543 9.86992 3.30254 9.80117 3.25957 9.80117C3.2166 9.80117 3.13926 9.87422 3.05332 9.94727C2.97168 10.0203 2.87715 10.0934 2.8041 10.0934C2.79551 10.0934 2.79121 10.0934 2.78262 10.0934C2.27988 9.73672 2.78691 9.10508 2.52051 8.61953C2.69238 8.43477 2.76113 8.12109 2.68379 8.12109C2.64512 8.12109 2.56777 8.19844 2.44746 8.40898C2.27559 7.9707 2.73105 6.97813 3.11777 6.92227C3.13066 6.92227 3.13926 6.91797 3.15215 6.91797C3.2209 6.91797 3.28965 6.95234 3.3498 7.02539C3.38418 7.22734 3.29824 7.65273 3.33262 7.65273C3.3498 7.65273 3.38418 7.5668 3.47012 7.34336C3.58184 6.83203 4.36387 6.4625 4.44551 6.14883C4.4498 6.15313 4.4498 6.15312 4.4541 6.15312C4.54434 6.15312 5.12441 5.6418 5.37793 5.58594C5.47676 5.48711 5.54551 5.45273 5.59707 5.45273C5.65293 5.45273 5.68301 5.4957 5.70449 5.53438C5.72598 5.57734 5.74316 5.61602 5.76465 5.61602C5.78184 5.61602 5.80332 5.59023 5.84199 5.51719C5.70879 5.25508 6.05254 5.00586 5.95801 5.00586C5.92363 5.00586 5.82051 5.04023 5.60996 5.12617C5.57559 5.14336 5.5584 5.14766 5.5498 5.14766C5.52402 5.14766 5.62715 5.07891 5.77754 5.01016C5.92793 4.94141 6.11699 4.87266 6.27598 4.87266C6.35332 4.87266 6.42207 4.88984 6.47363 4.93281C7.13965 4.77383 6.77441 4.55469 6.80879 4.55469C6.80879 4.55469 6.81309 4.55469 6.81738 4.55469C7.00645 4.44297 6.95059 4.02187 7.22988 3.75977ZM4.25215 5.51719C4.24355 5.51719 4.28223 5.46133 4.41113 5.30234C4.67754 5.10469 4.89238 4.97148 4.64746 4.84258C4.75488 4.79531 4.85801 4.73945 4.95684 4.6793C4.95254 4.88984 4.77637 5.40117 4.68184 5.40117C4.66035 5.40117 4.63887 5.37109 4.63027 5.30664C4.68613 5.20781 4.69043 5.16914 4.66895 5.16914C4.63457 5.16914 4.53574 5.25508 4.44121 5.34531C4.34668 5.42695 4.26074 5.51719 4.25215 5.51719ZM4.49707 5.6332C4.38105 5.6332 4.40254 5.56016 4.75918 5.48711C4.91387 5.46562 4.79355 5.47422 4.97832 5.43125C4.79785 5.57734 4.5959 5.6332 4.49707 5.6332ZM11.1787 5.19922C11.2303 5.19063 11.2689 5.19063 11.299 5.19063C11.4236 5.19063 11.3678 5.24219 11.2947 5.29375C11.2217 5.34531 11.1314 5.39687 11.183 5.39687C11.2131 5.39687 11.2947 5.37969 11.4623 5.33242C12.3088 5.27227 11.1314 4.55469 11.3205 4.31406L11.2689 4.29688C10.9209 4.73945 11.501 4.74805 11.1787 5.19922ZM10.8264 5.21641C10.8865 5.21641 10.9639 5.14766 11.0455 4.9543C11.1572 4.82109 11.11 4.80391 10.9896 4.73945C10.6588 4.82539 10.6889 5.21641 10.8264 5.21641ZM13.7912 6.57852C13.7783 6.57852 13.7697 6.58281 13.7611 6.58711C13.7955 6.5957 13.8299 6.6043 13.8643 6.6043C13.8299 6.58711 13.8084 6.57852 13.7912 6.57852ZM19.5619 7.64844C19.635 7.80742 19.6736 7.87187 19.6779 7.87187C19.708 7.87187 19.1365 6.47969 18.9002 6.23047C17.667 4.20234 15.6389 2.65117 13.3271 2.07109H13.3229C13.2627 2.07109 13.3314 2.10117 13.4131 2.13125C13.4947 2.16133 13.5936 2.19141 13.5936 2.19141C13.5936 2.19141 13.5291 2.16992 13.3314 2.11406C13.1123 2.04961 12.8889 2.00234 12.6611 1.98516C12.6225 1.99805 13.6021 2.38477 14.2596 2.58672C14.0404 2.51797 13.8127 2.45781 13.7568 2.45781C13.7182 2.45781 13.7568 2.48359 13.9158 2.55234C13.7225 2.49648 13.6408 2.4707 13.6322 2.4707C13.6193 2.4707 13.89 2.56094 14.1436 2.65117C14.4014 2.74141 14.6463 2.83164 14.5775 2.83164C14.5604 2.83164 14.5131 2.82305 14.44 2.81016C14.6592 2.93047 14.7365 2.97773 14.7236 2.97773C14.7021 2.97773 14.4314 2.84883 14.1521 2.71992C13.8771 2.59102 13.5979 2.46211 13.5592 2.46211C13.5377 2.46211 13.5936 2.50508 13.7826 2.6168C14.0404 2.72852 14.2982 2.84023 14.2252 2.84023C14.1908 2.84023 14.092 2.81875 13.8986 2.76289C14.3283 2.98203 13.5936 2.89609 13.8428 3.19258C13.7053 3.06367 13.6494 3.0207 13.6365 3.0207C13.6236 3.0207 13.658 3.07227 13.6924 3.12383C13.7268 3.17539 13.7525 3.22695 13.7225 3.22695C13.7182 3.22695 13.7182 3.22695 13.7139 3.22695C14.0146 3.55352 13.5033 3.26133 13.8686 3.55352C13.5936 3.42891 13.1252 3.22266 13.3357 3.22266C13.3873 3.22266 13.4861 3.23555 13.6408 3.26992C13.3615 2.94336 12.5709 2.93047 12.5537 2.8918C12.3561 2.90469 12.3518 3.05508 12.3861 3.33008C12.3818 3.76406 11.9564 3.77266 12.0123 4.02187C12.0123 4.01758 12.0166 4.01758 12.0166 4.01758C12.0252 4.01758 12.0295 4.10352 12.0553 4.19375C12.0854 4.27969 12.1369 4.36992 12.2486 4.36992C12.3088 4.36992 12.3861 4.34414 12.4807 4.27969C12.6139 4.52031 12.7342 4.60625 12.8287 4.60625C12.9705 4.60625 13.0564 4.41289 13.0479 4.23672C12.8932 4.15078 12.6912 3.4375 12.9146 3.4375C12.949 3.4375 12.992 3.45469 13.0479 3.49336C12.6998 4.34844 14.4229 3.77695 13.4475 4.16797C13.6666 4.45586 13.31 4.44297 13.4131 4.79102C13.2455 4.83828 13.0607 4.88125 12.8975 4.88125C12.6568 4.88125 12.4721 4.77813 12.4936 4.41719C12.1928 4.57617 12.7943 5.11328 12.1971 5.11328H12.1627C11.8748 5.6418 10.7963 5.46133 11.6428 6.01992C11.69 6.26484 11.5354 6.30781 11.3377 6.30781C11.2861 6.30781 11.2303 6.30352 11.1744 6.29922C11.1186 6.29492 11.0627 6.29492 11.0111 6.29492C10.7877 6.29492 10.6287 6.35078 10.7662 6.69883C10.6674 7.05977 10.8994 7.21875 11.183 7.21875C11.5268 7.21875 11.9479 6.99531 11.9779 6.62578C12.1627 6.34648 12.399 6.23047 12.6439 6.23047C13.0307 6.23047 13.4389 6.52266 13.7053 6.88359C13.7268 6.91797 13.7439 6.93086 13.7525 6.93086C13.774 6.93086 13.7525 6.84492 13.7439 6.75898C13.7354 6.69023 13.7354 6.62148 13.7611 6.6C13.3787 6.49258 13.0865 6.02852 13.2154 6.02852C13.2584 6.02852 13.3486 6.08008 13.4947 6.21758C13.5033 6.21758 13.5119 6.21758 13.5162 6.21758C13.7568 6.21758 13.9459 6.40664 14.092 6.5957C14.2424 6.78477 14.3541 6.97383 14.4529 6.97383C14.4916 6.97383 14.5303 6.93945 14.5646 6.86211C14.5475 6.83633 14.5045 6.76328 14.483 6.69023C14.4572 6.6 14.4572 6.50977 14.5732 6.50977C14.6205 6.50977 14.685 6.52695 14.7752 6.56133C15.0674 6.48398 14.5904 5.72344 14.9771 5.72344C15.0158 5.72344 15.0631 5.73203 15.1232 5.74922C15.1189 5.88242 15.1791 5.92969 15.235 5.92969C15.3467 5.92969 15.4584 5.7707 15.1877 5.72344C15.2908 5.62461 15.351 5.58594 15.3939 5.58594C15.5443 5.58594 15.424 6.08438 15.9439 6.08438C16.1201 6.50117 14.4143 6.11445 14.96 6.91367C15.0846 7.00391 15.2393 7.02109 15.3896 7.02109C15.4369 7.02109 15.4799 7.02109 15.5229 7.0168C15.5658 7.0168 15.6088 7.0125 15.6475 7.0125C15.9139 7.0125 16.1029 7.07695 15.9869 7.62695C15.8451 7.73008 15.6861 7.76445 15.5229 7.76445C15.3768 7.76445 15.2307 7.73867 15.0889 7.71289C14.9471 7.68711 14.8096 7.66133 14.685 7.66133C14.4916 7.66133 14.3369 7.72578 14.2424 7.94922C13.7396 7.74297 13.0779 7.73438 13.1424 7.11133C12.2658 7.23594 11.3506 7.17148 10.7061 7.70859C10.6674 8.49492 9.31816 8.74844 9.64473 9.64219C9.25371 10.4672 10.1174 11.623 10.9982 11.623C11.0283 11.623 11.0627 11.623 11.0928 11.6187C11.574 11.6145 12.0596 11.3996 12.485 11.3996C12.7041 11.3996 12.9018 11.4555 13.0736 11.6273C13.1123 11.623 13.1467 11.6187 13.1768 11.6187C13.8342 11.6187 12.9662 12.6629 13.7525 12.8391C14.4658 13.5781 13.3143 14.3387 13.8771 15.0477C13.9373 15.602 14.2123 16.066 14.2123 16.6074C14.2854 16.616 14.3541 16.6203 14.4271 16.6203C15.3338 16.6203 15.901 15.8297 16.4338 15.2324C16.2705 14.3387 17.7014 14.1625 17.2115 13.1613C16.9838 12.0656 18.29 11.4168 18.217 10.3211C18.2299 10.1664 18.1869 10.1191 18.1225 10.1191C18.058 10.1191 17.9635 10.1664 17.8732 10.2094C17.7787 10.2566 17.6756 10.2996 17.5939 10.2996C17.4865 10.2996 17.4049 10.2266 17.3963 9.98594C16.7646 9.39727 16.4768 8.59805 15.8881 7.94922C16.6529 8.31875 17.0869 9.15234 17.4393 9.90859C17.4693 9.91719 17.4994 9.92148 17.5338 9.92148C18.1568 9.92148 19.0248 8.43047 18.0795 8.06953C18.0279 8.21133 17.9592 8.26289 17.8775 8.26289C17.7357 8.26289 17.5725 8.09102 17.4564 7.92344C17.3404 7.75156 17.2803 7.57969 17.3447 7.57969C17.3877 7.57969 17.4822 7.64844 17.6455 7.82891C17.8303 7.94492 18.0107 7.975 18.1998 7.975C18.3846 7.975 18.5736 7.94492 18.7713 7.92773C19.0205 8.02656 19.1279 8.34453 19.2053 8.34453C19.2182 8.34453 19.2354 8.33164 19.2482 8.30156C19.4459 8.77422 19.6736 9.61641 19.8799 9.84414C19.7725 9.12227 19.7467 8.35742 19.5619 7.64844ZM17.1643 6.65586C16.6787 6.53125 16.5197 5.92969 16.1373 5.58164C16.133 5.48711 16.2748 5.5043 16.2404 5.34531C16.7561 5.5043 16.5885 5.66328 16.5412 5.69336C16.7303 6.00703 17.2588 6.22187 17.1643 6.65586ZM10.4912 3.38594C10.0229 3.52344 9.9584 3.37305 10.04 3.66094C10.0744 3.68672 10.1389 3.69531 10.2033 3.69531C10.4311 3.69961 10.7404 3.56641 10.4912 3.38594ZM17.3705 15.2238C17.985 14.7039 18.0623 14.0852 18.0924 13.4578C17.8174 13.9949 17.001 14.5879 17.3705 15.2238ZM14.5732 6.84492C14.5689 6.84922 14.5689 6.84922 14.5689 6.85352C14.5732 6.86211 14.5775 6.86211 14.5775 6.86211C14.5775 6.86211 14.5775 6.85781 14.5732 6.84492ZM11.0283 0C4.95254 0 0.0283203 4.92422 0.0283203 11C0.0283203 17.0758 4.95254 22 11.0283 22C17.1041 22 22.0283 17.0758 22.0283 11C22.0283 4.92422 17.1041 0 11.0283 0ZM11.0283 21.1535C5.4209 21.1535 0.874805 16.6074 0.874805 11C0.874805 5.39258 5.4209 0.846484 11.0283 0.846484C16.6357 0.846484 21.1818 5.39258 21.1818 11C21.1818 16.6074 16.6357 21.1535 11.0283 21.1535Z" fill="#E6FF2B"/>
</svg>
